<svg width="200" height="200" viewBox="0 0 200 200" fill="none" xmlns="http://www.w3.org/2000/svg">
<rect width="200" height="200" fill="#62B1B8"/>
<circle cx="100" cy="100" r="80.5245" fill="#FFF7EA"/>
<path d="M102.56 60.7739V45.1272H47.9727C40.0094 45.1272 37.53 53.6175 37.53 60.7739H102.56Z" fill="#DC6628"/>
<path d="M27.7165 73.1579C27.7165 69.3461 34.0652 52.9874 51.2501 53.8573H70.23L73.6173 60.9949L84.8359 84.634H98.6593L114.048 113.585L103.876 77.8527C100.665 78.1346 94.2432 78.5294 94.2432 77.8527C94.2432 77.176 90.2144 61.5738 88.2 53.8573H97.4732C97.4732 46.0853 100.214 39.6016 107.892 39.6016H161.76C169.537 39.6016 172.284 45.4289 172.284 53.8573V142.939C172.284 154.553 166.82 160.398 154.391 160.398H44.9305C33.7972 160.398 27.7165 154.17 27.7165 142.939V73.1579Z" fill="#F58A22"/>
<path d="M172.284 142.939C172.284 154.553 166.82 160.398 154.391 160.398H44.9305C33.7972 160.398 27.7165 154.17 27.7165 142.939V132.089H172.284V142.939Z" fill="#DC6628"/>
</svg>
